<svg width="27" height="13" viewBox="0 0 27 13" fill="none" xmlns="http://www.w3.org/2000/svg">
<path fill-rule="evenodd" clip-rule="evenodd" d="M19.6981 0.000206314H6.69837C3.10865 0.000206314 0.198486 2.91058 0.198486 6.5001C0.198486 10.0896 3.10885 13 6.69837 13C9.7103 13 12.2208 10.9388 12.9572 8.15658C13.0401 8.1467 13.1066 8.12493 13.1986 8.12493C13.287 8.12493 13.357 8.14691 13.4366 8.15658C14.1726 10.9385 16.6832 12.9998 19.6986 12.9998C23.2883 12.9998 26.1985 10.0894 26.1985 6.4999C26.1985 2.91037 23.2881 0 19.6986 0L19.6981 0.000206314ZM8.32347 6.5001H6.69847V8.1251H5.07348V6.5001H3.44848V4.8751H5.07348V3.2501H6.69847V4.8751H8.32347V6.5001ZM17.2607 8.1251C16.8098 8.1251 16.4483 7.76184 16.4483 7.31271C16.4483 6.86336 16.81 6.50031 17.2607 6.50031C17.7085 6.50031 18.0731 6.86358 18.0731 7.31271C18.0731 7.76184 17.7085 8.1251 17.2607 8.1251ZM18.8857 4.87505C18.4348 4.87505 18.0733 4.51179 18.0733 4.06266C18.0733 3.61331 18.435 3.25026 18.8857 3.25026C19.3335 3.25026 19.6981 3.61353 19.6981 4.06266C19.6981 4.51179 19.3335 4.87505 18.8857 4.87505ZM20.5107 9.7501C20.0598 9.7501 19.6983 9.38684 19.6983 8.93771C19.6983 8.48837 20.06 8.12531 20.5107 8.12531C20.9585 8.12531 21.3231 8.48858 21.3231 8.93771C21.3231 9.38684 20.9585 9.7501 20.5107 9.7501ZM22.1357 6.50005C21.6848 6.50005 21.3233 6.13678 21.3233 5.68765C21.3233 5.23831 21.685 4.87526 22.1357 4.87526C22.5835 4.87526 22.9481 5.23852 22.9481 5.68765C22.9481 6.13679 22.5835 6.50005 22.1357 6.50005Z" fill="white"/>
</svg>
