<svg width="19" height="16" viewBox="0 0 19 16" fill="none" xmlns="http://www.w3.org/2000/svg">
<path d="M17.761 3.80939H4.55194C4.50136 3.80939 4.45233 3.81789 4.40267 3.82357L3.84592 1.26499C3.80841 0.732162 3.33248 0 2.11028 0L0.619487 0.000141781C0.277459 0.000141781 0 0.256057 0 0.571513C0 0.886969 0.277466 1.14288 0.619487 1.14288H2.11028C2.28859 1.14288 2.59065 1.17039 2.60927 1.33259C2.60927 1.37016 2.61326 1.40816 2.62141 1.44488L3.33853 4.74045C3.31977 4.83176 3.30901 4.92476 3.31501 5.01919L3.72774 11.4955C3.75741 11.9601 4.08622 12.3441 4.53446 12.4976C4.28651 12.852 4.1385 13.2711 4.1385 13.723C4.1385 14.9786 5.24973 16 6.61585 16C7.98197 16 9.09337 14.9784 9.09337 13.723C9.09337 13.3011 8.95948 12.9104 8.74089 12.5713H12.3335C12.1149 12.9105 11.981 13.3011 11.981 13.723C11.9812 14.9786 13.0926 16 14.4585 16C15.8246 16 16.936 14.9784 16.936 13.723C16.936 13.2974 16.8003 12.9034 16.5782 12.5621C17.1542 12.5374 17.6418 12.1553 17.7428 11.6269L18.9812 5.15062C19.0448 4.81786 18.9455 4.47631 18.7101 4.21756C18.4746 3.95881 18.1271 3.80937 17.7609 3.80937L17.761 3.80939ZM13.4263 11.4286H11.3631V8.76201H13.4263V11.4286ZM14.6654 8.76201H17.0324L16.5225 11.4288H14.6654V8.76201ZM6.8221 7.61912H4.72198L4.55212 4.95235H6.82213L6.8221 7.61912ZM8.06123 4.95235H10.124V7.61912H8.06123V4.95235ZM6.8221 8.76197V11.4288H4.96486L4.79485 8.76197H6.8221ZM8.06123 8.76197H10.124V11.4288H8.06123V8.76197ZM11.3631 7.61909V4.95231H13.4264V7.61909H11.3631ZM6.61605 14.8572C5.93215 14.8572 5.37767 14.3495 5.37767 13.7231C5.37767 13.0967 5.93215 12.589 6.61605 12.589C7.29996 12.589 7.85444 13.0967 7.85444 13.7231C7.85444 14.3495 7.29996 14.8572 6.61605 14.8572ZM14.4586 14.8572C13.7747 14.8572 13.2202 14.3495 13.2202 13.7231C13.2202 13.0967 13.7747 12.589 14.4586 12.589C15.1425 12.589 15.697 13.0967 15.697 13.7231C15.697 14.3495 15.1427 14.8572 14.4586 14.8572ZM17.2509 7.61909H14.6654L14.6655 4.95231H17.761L17.2509 7.61909Z" fill="white"/>
</svg>
