<svg width="18" height="19" viewBox="0 0 18 19" fill="none" xmlns="http://www.w3.org/2000/svg">
<path d="M17.2986 16.7738L16.1885 11.6675C16.143 11.4571 16.0375 11.2643 15.8847 11.1125L6.36166 1.56574C5.87185 1.07623 5.20778 0.801208 4.51532 0.801208C3.82301 0.801208 3.15894 1.0762 2.66913 1.56574L0.764528 3.45282C0.275018 3.94263 0 4.6067 0 5.29901C0 5.99147 0.274988 6.65555 0.764528 7.14535L10.3113 16.6862C10.4631 16.839 10.6559 16.9445 10.8663 16.99L15.9785 18.1001H15.9784C16.0581 18.1086 16.1384 18.1086 16.218 18.1001C16.5555 18.0992 16.8744 17.9456 17.0854 17.6822C17.2965 17.4189 17.3771 17.0742 17.3047 16.7447L17.2986 16.7738ZM1.5939 4.2824L3.48099 2.39532C3.75163 2.12526 4.11823 1.97349 4.50064 1.97349C4.88291 1.97349 5.24951 2.12526 5.52015 2.39532L6.31466 3.18983L2.38849 7.116L1.59398 6.32149C1.32392 6.05085 1.17216 5.68425 1.17216 5.30198C1.17216 4.91957 1.32393 4.55297 1.59398 4.28233L1.5939 4.2824ZM11.1347 15.8624L3.21224 7.9399L7.13841 4.01373L15.0494 11.9128L16.1419 16.943L11.1347 15.8624Z" fill="white"/>
</svg>
