<svg width="17" height="17" viewBox="0 0 17 17" fill="none" xmlns="http://www.w3.org/2000/svg">
<path d="M15.1818 16H11.0312C10.5908 16 10.2451 15.6659 10.2451 15.241V12.9333C10.2451 11.992 9.45903 11.2327 8.48404 11.2327C7.5093 11.2327 6.72299 11.9918 6.72299 12.9333V15.241C6.72299 15.6661 6.37702 16 5.93693 16H1.78606C1.34574 16 1 15.6659 1 15.241V7.40701C1 7.19442 1.09435 6.98183 1.28307 6.82998L7.94965 1.18222C8.23272 0.93926 8.70426 0.93926 8.98731 1.18222L12.3521 4.0061L15.7169 6.82998C15.9056 6.98183 16 7.19442 16 7.40701V15.241C15.9683 15.6355 15.6221 16 15.1818 16ZM8.48398 10.5342C9.83615 10.5342 10.9367 11.597 10.9367 12.9026V15.2103C10.9367 15.2711 10.9682 15.3014 11.0311 15.3014H15.1819C15.2448 15.3014 15.2763 15.2711 15.2763 15.2103L15.2761 7.40653C15.2761 7.37616 15.2761 7.34579 15.2446 7.34579L8.5156 1.6978C8.48415 1.66743 8.42124 1.66743 8.38979 1.6978L1.72321 7.31542C1.69175 7.34579 1.69175 7.34579 1.69175 7.37616V15.18C1.69175 15.2407 1.75466 15.2711 1.78611 15.2711H5.90552C5.96843 15.2711 5.99988 15.2407 5.99988 15.18V12.8723C6.03133 11.5967 7.13181 10.5342 8.48398 10.5342Z" fill="white" stroke="white"/>
</svg>
