<svg width="46" height="35" viewBox="0 0 46 35" fill="none" xmlns="http://www.w3.org/2000/svg">
<path d="M38.9409 2.90131C36.0091 1.55842 32.8651 0.569034 29.5778 0.00237987C29.5179 -0.00856404 29.4581 0.0187673 29.4273 0.0734295C29.0229 0.791318 28.5751 1.72786 28.2614 2.46399C24.7258 1.9356 21.2083 1.9356 17.7451 2.46399C17.4314 1.71151 16.9673 0.791318 16.5611 0.0734295C16.5303 0.0205945 16.4705 -0.00673687 16.4106 0.00237987C13.1251 0.567226 9.98114 1.55661 7.04746 2.90131C7.02206 2.91224 7.00029 2.93048 6.98585 2.95415C1.02233 11.8477 -0.611321 20.5227 0.190095 29.0901C0.193722 29.132 0.217293 29.1722 0.24993 29.1976C4.18449 32.082 7.99577 33.833 11.7363 34.9936C11.7961 35.0119 11.8596 34.9901 11.8977 34.9408C12.7825 33.7347 13.5712 32.4628 14.2475 31.1253C14.2874 31.047 14.2493 30.9541 14.1677 30.9231C12.9167 30.4494 11.7254 29.8718 10.5795 29.2159C10.4889 29.163 10.4816 29.0336 10.565 28.9717C10.8061 28.7912 11.0473 28.6036 11.2776 28.4141C11.3193 28.3795 11.3773 28.3721 11.4263 28.394C18.9545 31.825 27.1046 31.825 34.544 28.394C34.593 28.3704 34.651 28.3777 34.6945 28.4123C34.9248 28.6017 35.1659 28.7912 35.4089 28.9717C35.4923 29.0336 35.4869 29.163 35.3962 29.2159C34.2503 29.8845 33.0591 30.4494 31.8061 30.9213C31.7246 30.9523 31.6883 31.047 31.7282 31.1253C32.419 32.4609 33.2077 33.7327 34.0762 34.939C34.1125 34.9901 34.1777 35.0119 34.2376 34.9936C37.9963 33.833 41.8075 32.082 45.7421 29.1976C45.7765 29.1722 45.7983 29.1338 45.8019 29.0919C46.7611 19.1871 44.1955 10.5832 39.0007 2.95596C38.9881 2.93048 38.9663 2.91224 38.9409 2.90131ZM15.3717 23.8735C13.1052 23.8735 11.2377 21.7963 11.2377 19.2454C11.2377 16.6945 13.069 14.6173 15.3717 14.6173C17.6925 14.6173 19.542 16.7127 19.5057 19.2454C19.5057 21.7963 17.6744 23.8735 15.3717 23.8735ZM30.6566 23.8735C28.3901 23.8735 26.5226 21.7963 26.5226 19.2454C26.5226 16.6945 28.3539 14.6173 30.6566 14.6173C32.9775 14.6173 34.8269 16.7127 34.7907 19.2454C34.7907 21.7963 32.9775 23.8735 30.6566 23.8735Z" fill="white"/>
</svg>
